<?xml version="1.0" encoding="utf-8"?>
<!-- Generator: Adobe Illustrator 27.5.0, SVG Export Plug-In . SVG Version: 6.00 Build 0)  -->
<svg version="1.1" xmlns="http://www.w3.org/2000/svg" xmlns:xlink="http://www.w3.org/1999/xlink" x="0px" y="0px"
	 viewBox="0 0 500 500" style="enable-background:new 0 0 500 500;" xml:space="preserve">
<g id="Floor">
	<g id="Floor_10_">
		<ellipse id="Floor_13_" style="fill:#EBEBEB;" cx="250" cy="352.602" rx="217.1" ry="125.343"/>
		<path style="fill:#FAFAFA;" d="M404.691,440.545c-0.39,0.23-0.78,0.46-1.18,0.69c-3.68,2.13-7.46,4.16-11.33,6.09h-0.01
			c-0.63,0.32-1.26,0.63-1.89,0.94c-6.3,3.08-12.83,5.93-19.56,8.53c-1.28,0.5-2.57,0.99-3.86,1.46c-0.11,0.05-0.22,0.08-0.32,0.12
			c-1.19,0.44-2.39,0.87-3.59,1.3c-0.26,0.09-0.52,0.18-0.79,0.27c-1.24,0.44-2.5,0.86-3.76,1.28c-1.39,0.47-2.79,0.92-4.19,1.36
			c-1.38,0.44-2.76,0.87-4.15,1.29c-0.12,0.03-0.24,0.06-0.35,0.1c-1.04,0.31-2.08,0.62-3.13,0.92c-2.1,0.6-4.2,1.18-6.33,1.74
			c-1.06,0.28-2.12,0.55-3.19,0.82c-1.09,0.28-2.18,0.54-3.28,0.81c-2.19,0.53-4.4,1.03-6.61,1.52c-1.11,0.24-2.22,0.48-3.33,0.71
			c-1.48,0.31-2.97,0.61-4.47,0.9c-1.47,0.29-2.95,0.56-4.44,0.83c-0.04,0.01-0.07,0.02-0.11,0.02c-1.48,0.27-2.96,0.53-4.45,0.77
			c-1.5,0.25-2.99,0.49-4.49,0.72c-0.09,0.02-0.17,0.03-0.25,0.04c-4.48,0.69-9,1.29-13.54,1.8c-0.93,0.11-1.87,0.21-2.81,0.31
			c-0.91,0.1-1.82,0.19-2.74,0.28c-1.34,0.13-2.69,0.26-4.04,0.37c-1.07,0.1-2.14,0.19-3.21,0.26c-0.73,0.07-1.45,0.12-2.18,0.17
			c-0.84,0.07-1.69,0.12-2.53,0.17c-0.65,0.05-1.29,0.09-1.94,0.12c-0.95,0.07-1.91,0.12-2.87,0.17c-0.82,0.05-1.63,0.09-2.45,0.12
			c-0.93,0.05-1.87,0.09-2.8,0.12c-0.41,0.02-0.83,0.03-1.24,0.04c-1.14,0.05-2.27,0.08-3.41,0.11c-1.55,0.04-3.11,0.07-4.66,0.09
			c-1.66,0.03-3.33,0.04-4.99,0.04l-217.32-125.47c0-0.9,0.02-1.79,0.05-2.69c0.05-1.07,0.11-2.14,0.2-3.21
			c0.04-0.5,0.09-0.99,0.14-1.49c0.05-0.5,0.11-1,0.17-1.5c0.06-0.5,0.13-1,0.2-1.5c0.06-0.38,0.11-0.76,0.18-1.14
			c0.17-1.12,0.38-2.23,0.61-3.35c0.11-0.5,0.21-0.99,0.33-1.49c0.22-0.97,0.46-1.93,0.72-2.89c0.14-0.53,0.29-1.05,0.44-1.58
			c0.14-0.46,0.28-0.92,0.42-1.38c0.32-1.02,0.66-2.05,1.03-3.07c0.17-0.49,0.35-0.99,0.54-1.48c0,0,0,0,0-0.01
			c0.38-0.98,0.77-1.96,1.18-2.93c0.21-0.49,0.42-0.98,0.64-1.47c0.19-0.42,0.38-0.85,0.58-1.27c5.41-11.65,13.78-22.94,25.11-33.47
			c0.36-0.33,0.72-0.67,1.08-1c0.23-0.2,0.45-0.41,0.68-0.61c0.41-0.37,0.82-0.74,1.24-1.1c0.75-0.66,1.52-1.32,2.29-1.97
			c0.46-0.39,0.92-0.77,1.39-1.16c0.46-0.38,0.93-0.76,1.41-1.14c0.47-0.38,0.95-0.76,1.43-1.14c0.97-0.76,1.95-1.51,2.95-2.26
			c0.5-0.37,1-0.74,1.51-1.12c0.39-0.28,0.78-0.57,1.18-0.86c0.69-0.49,1.39-0.98,2.1-1.48c0.47-0.32,0.93-0.64,1.4-0.96
			c0,0,0.01,0,0.01-0.01c3.9-2.67,8.03-5.26,12.38-7.77c0.12-0.07,0.24-0.14,0.37-0.21L404.691,440.545z"/>
	</g>
</g>
<g id="Shadows">
	<path style="fill:#F0F0F0;" d="M228.33,391.188c-10.041-2.391-20.799-1.673-30.433,2.031c-2.947,1.133-5.974,2.708-7.463,5.493
		c-2.561,4.79,0.579,10.703,4.489,14.473c7.203,6.946,16.969,10.59,26.71,12.88c9.741,2.29,19.754,3.416,29.346,6.268
		c13.049,3.879,24.969,10.844,37.802,15.39c12.832,4.545,27.578,6.471,39.707,0.289c5.482-2.794,10.53-8.086,9.996-14.216
		c-0.474-5.449-5.095-9.519-9.581-12.648c-31.414-21.909-71.192-26.986-109.238-31.385"/>
</g>
<g id="Plants">
	<g id="Palm">
		<path style="fill:#B16668;" d="M104.414,64.85c0,0,30.559,27.791,37,81.732c5.917,49.558-8.129,96.066-13.472,114.776
			c-1.201,3.707,2.496,8.036,15.884,8.036c13.389,0,13.717-7.967,13.717-7.967s9.759-58.04,0.883-109.52
			c-8.775-50.895-30.295-74.441-45.888-89.921L104.414,64.85z"/>
		<g id="XMLID_1421_">
			<path id="XMLID_1431_" style="fill:#27DEBF;" d="M109.545,63.762c0,0-5.294-14.115-35.287-14.528
				c-29.993-0.413-50.571,36.518-53.818,59.392c0,0,8.12-9.024,18.627-13.866l11.546-20.852l-5.26,19.19
				c0,0,6.488-0.472,13.883-5.017c0,0,4.78-12.79,10.411-20.035l-3.58,16.782c0,0,4.103,0.64,9.588-1.776
				C81.14,80.635,97.612,75.406,109.545,63.762z"/>
			<g>
				<path id="XMLID_1426_" style="fill:#27DEBF;" d="M107.504,64.498c-0.004-0.002-2.016-7.697,5.468-24.33
					c7.578-16.841,28.005-24.983,39.612-26.433c11.607-1.45,28.327,0.899,45.185,12.484c0,0-13.707-0.085-26.797,7.89
					c0,0-7.919-6.311-19.8-5.97c0,0,10.894,6.098,13.839,9.181c0,0-9.057,7.682-20.043,8.293c0,0-9.336-5.548-17.046-5.695
					c0,0,8.755,3.909,12.138,9.167C140.062,49.085,119.354,63.791,107.504,64.498z"/>
				<path id="XMLID_1425_" style="opacity:0.15;" d="M107.504,64.498c-0.004-0.002-2.016-7.697,5.468-24.33
					c7.578-16.841,28.005-24.983,39.612-26.433c11.607-1.45,28.327,0.899,45.185,12.484c0,0-13.707-0.085-26.797,7.89
					c0,0-7.919-6.311-19.8-5.97c0,0,10.894,6.098,13.839,9.181c0,0-9.057,7.682-20.043,8.293c0,0-9.336-5.548-17.046-5.695
					c0,0,8.755,3.909,12.138,9.167C140.062,49.085,119.354,63.791,107.504,64.498z"/>
			</g>
			<path id="XMLID_1424_" style="fill:#27DEBF;" d="M108.349,64.217c0,0,12.275-14.466,35.838-12.422
				c23.563,2.044,44.951,29.575,50.102,43.81c0,0-10.728-7.088-31.316-9.959l-10.828-15.239l2.659,13.937l-13.767-2.819
				L130.822,65.45l2.94,14.468C133.763,79.918,115.566,72.859,108.349,64.217z"/>
			<path id="XMLID_1423_" style="fill:#27DEBF;" d="M109.545,63.762c0,0,1.443,9.509-1.14,19.054
				c-2.583,9.545-7.705,14.661-7.705,14.661l-5.836-9.05l0.278,18.742c0,0-2.562,7.615-9.759,15.457l-3.906-17.976l-2.289,24.56
				c0,0-12.772,17.179-16.014,25.563c0,0-7.103-29.984,3.537-54.671C77.35,75.414,91.004,60.999,109.545,63.762z"/>
			<path id="XMLID_1422_" style="opacity:0.15;" d="M109.545,63.762c0,0,1.443,9.509-1.14,19.054
				c-2.583,9.545-7.705,14.661-7.705,14.661l-5.836-9.05l0.278,18.742c0,0-2.562,7.615-9.759,15.457l-3.906-17.976l-2.289,24.56
				c0,0-12.772,17.179-16.014,25.563c0,0-7.103-29.984,3.537-54.671C77.35,75.414,91.004,60.999,109.545,63.762z"/>
		</g>
	</g>
	<g id="Plants_9_">
		<g id="XMLID_1578_">
			<path style="fill:#27DEBF;" d="M436.881,201.695l-18.62,12.74l17.61-6.67c0,0,0.14,6.16-3.48,13.53c0,0-11.63,5.65-17.95,11.6
				l15.49-4.87c0,0,0.84,3.3-0.48,8.09c-0.1,0.36-0.21,0.73-0.33,1.1c-0.82,2.47-1.99,7.16-3.97,12.71c0,0.01,0,0.01-0.01,0.01
				c-1.55,4.36-3.61,9.26-6.4,14c-1.26,2.15-2.67,4.26-4.26,6.29c-0.09,0.13-0.19,0.25-0.29,0.38c-2.87-1.92-5.86-3.8-8.97-5.63
				c-1.79-4.57-3.76-15.68-4.12-24.69c-1.35-34.49,25.91-52.28,47.18-57.39C448.281,182.895,440.501,191.355,436.881,201.695z"/>
			<path style="opacity:0.25;" d="M436.881,201.695l-18.62,12.74l17.61-6.67c0,0,0.14,6.16-3.48,13.53c0,0-11.63,5.65-17.95,11.6
				l15.49-4.87c0,0,0.84,3.3-0.48,8.09c-0.1,0.36-0.21,0.73-0.33,1.1c-0.82,2.47-1.99,7.16-3.97,12.71c0,0.01,0,0.01-0.01,0.01
				c-1.55,4.36-3.61,9.26-6.4,14c-1.26,2.15-2.67,4.26-4.26,6.29c-0.09,0.13-0.19,0.25-0.29,0.38c-2.87-1.92-5.86-3.8-8.97-5.63
				c-1.79-4.57-3.76-15.68-4.12-24.69c-1.35-34.49,25.91-52.28,47.18-57.39C448.281,182.895,440.501,191.355,436.881,201.695z"/>
		</g>
		<g>
			<path style="fill:#27DEBF;" d="M482.131,222.885c0,0-0.01,0.01-0.03,0.02c-0.65,0.33-11.23,5.95-22.89,21.02l-17.62,1.72
				l12.7,4.37l-8.79,9.99l-18.01,0.82l13.26,4.39c0,0-6.83,8.74-17.09,12.15c-2.22-1.71-4.53-3.39-6.92-5.05
				c-0.73-0.5-1.48-1-2.23-1.5c-0.01-0.19-0.02-0.39-0.03-0.59c0-0.01,0-0.01,0-0.01c-0.3-6.66,0.93-16.49,8.08-26.79
				c1.9-2.74,4.24-5.17,6.89-7.31C444.641,223.815,470.111,220.785,482.131,222.885z"/>
			<path style="fill:#27DEBF;" d="M482.131,222.885c0,0-0.01,0.01-0.03,0.02c-0.52,0.45-9.05,7.83-22.34,22.72l-18.17,0.02
				l12.7,4.37l-8.79,9.99l-18.01,0.82l13.26,4.39c0,0-6.83,8.74-17.09,12.15c-2.22-1.71-4.53-3.39-6.92-5.05
				c-0.73-0.5-1.48-1-2.23-1.5c-0.01-0.19-0.02-0.39-0.03-0.59c0-0.01,0-0.01,0-0.01c-0.3-6.66,0.93-16.49,8.08-26.79
				c1.9-2.74,4.24-5.17,6.89-7.31C444.641,223.815,470.111,220.785,482.131,222.885z"/>
			<path style="opacity:0.1;" d="M482.131,222.885c-18.98,0.07-40.83,9.2-52.94,21.94c-1.51,1.59-2.83,3.29-4.03,5.08
				c-0.01,0-0.01,0.01-0.01,0.01c0,0.01,0,0.01-0.01,0.02c-2.99,4.51-5.02,9.48-6.4,14c0,0.01-0.01,0.01-0.01,0.01v0.01
				c-0.94,3.1-1.57,5.98-1.99,8.36c-0.73-0.5-1.48-1-2.23-1.5c-0.01-0.19-0.02-0.39-0.03-0.59c0-0.01,0-0.01,0-0.01
				c-0.3-6.66,0.93-16.49,8.08-26.79c1.9-2.74,4.24-5.17,6.89-7.31C444.641,223.815,470.111,220.785,482.131,222.885z"/>
		</g>
	</g>
	<g id="Plants_14_">
		<g id="XMLID_1429_">
			<path style="fill:#27DEBF;" d="M112.061,350.921c-0.483,12.12-3.215,25.031-5.618,31.043c-1.775,4.442-5.44,9.856-5.44,9.856
				l-10.357-5.976c-9.995-15.271-13.834-32.666-15.947-39.016c-2.378-7.183-1.087-12.253-1.087-12.253l20.667,6.495
				c-8.438-7.943-23.938-15.476-23.938-15.476c-4.841-9.826-4.66-18.047-4.66-18.047l23.492,8.909L64.342,299.46
				c-2.04-5.818-5.07-11.19-7.883-15.464c-3.851-5.843-7.315-9.609-7.315-9.609c4.02,0.966,8.209,2.27,12.422,3.935
				C87.049,288.378,113.618,311.447,112.061,350.921z"/>
			<path style="opacity:0.25;" d="M112.061,350.921c-0.483,12.108-3.215,25.031-5.618,31.043c-1.775,4.454-5.44,9.856-5.44,9.856
				l-10.357-5.976c-9.995-15.271-13.834-32.666-15.947-39.016c-2.378-7.183-1.087-12.253-1.087-12.253l20.667,6.495
				c-8.438-7.943-23.938-15.476-23.938-15.476c-4.841-9.826-4.66-18.047-4.66-18.047l23.492,8.909L64.342,299.46
				c-2.04-5.818-5.07-11.19-7.883-15.464c-3.851-5.843-7.315-9.609-7.315-9.609c4.02,0.966,8.209,2.27,12.422,3.935
				C87.049,288.378,113.618,311.447,112.061,350.921z"/>
		</g>
		<g>
			<path id="XMLID_1428_" style="fill:#27DEBF;" d="M90.242,385.136c0,0,6.744-18.66-7.361-38.978
				c-14.105-20.318-50.207-25.412-65.802-22.685c0,0,12.01,6.049,25.319,23.238l19.458,1.902l-14.029,4.833l9.715,11.027
				l19.898,0.911l-14.657,4.854C62.783,370.238,74.291,384.96,90.242,385.136z"/>
			<path id="XMLID_1427_" style="fill:#27DEBF;" d="M90.242,385.136c0,0,6.744-18.66-7.361-38.978
				c-14.105-20.318-50.207-25.412-65.802-22.685c0,0,9.546,8.139,24.703,25.125l20.074,0.016l-14.029,4.833l9.715,11.027
				l19.898,0.911l-14.657,4.854C62.783,370.238,74.291,384.96,90.242,385.136z"/>
			<path style="opacity:0.1;" d="M82.881,346.158c14.106,20.318,7.361,38.978,7.361,38.978s-1.306-23.36-14.682-37.43
				c-13.376-14.07-37.514-24.157-58.481-24.233C32.674,320.746,68.775,325.84,82.881,346.158z"/>
		</g>
	</g>
</g>
<g id="Character">
	<g id="Character_1_">
		<g>
			<path style="fill:#FFA8A7;" d="M389.34,149.555c0.039-0.339,0.253-0.628,0.425-0.923c0.754-1.293,0.719-3.007-0.086-4.269
				c-0.214-0.335-0.48-0.645-0.615-1.02c-0.283-0.783,0.064-1.648,0.007-2.478c-0.256-3.709-6.969-2.085-9.102-1.345
				c-0.612,0.212-3.622,1.181-4.976,1.67c0.043-1.676-0.042-3.269-0.746-6.081c-0.964-3.849-4.891-5.281-5.068-2.937
				c-0.103,1.344-0.371,4.262-1.31,7.869c-0.394,1.513-0.73,3.465-1.793,5.518c-0.995,1.923-2.75,5.24-5.561,7.909
				c-4.196,3.985-23.58,17.831-23.58,17.831c-5.422-3.477-27.508-16.262-35.003-21.131c-6.928-4.5-20.064-1.194-20.064-1.194
				l16.416,24.062c0,0,27.429,14.655,35.122,18.824c6.308,3.418,9.473,1.249,16.714-5.21c7.241-6.459,0,0,0,0
				c5.758-5.447,13.345-13.311,21.531-20.558c3.271-2.896,5.589-4.385,7.948-4.493c0.875-0.04,1.75-0.095,2.62-0.191
				c1.935-0.212,4.227-0.7,5.168-2.626c0.322-0.659,0.481-1.385,0.748-2.069c0.405-1.038,1.056-1.966,1.459-3.005
				c0.27-0.695,0.418-1.475,0.286-2.217C389.765,150.849,389.262,150.234,389.34,149.555z"/>
			<path style="fill:#F28F8F;" d="M376.707,142.322c-2.213,0.54-2.907,1.932-3.055,5.047c-0.088,1.847-0.867,5.218-2.964,6.447
				c0,0,1.677-0.044,2.692-0.954c1.015-0.91,1.282-1.002,1.771-0.41c0.489,0.592,1.333,0.89,1.333,0.89s-1.271,1.178-0.413,2.839
				c0.858,1.661,5.185,1.991,8.854,0.4c0,0-5.879,1.398-7.09-0.519c-1.211-1.916,1.993-3.999,4.305-4.464
				c0,0-5.648,0.945-6.375-0.933c-0.727-1.878,1.661-3.1,4.992-3.71c0,0-4.654,0.52-5.335-1.09
				C374.594,143.905,376.06,142.904,376.707,142.322z"/>
		</g>
		<g id="Backpack_1_">
			<g>
				<path style="fill:#27DEBF;" d="M197.139,198.214c1.554,2.167,5.166-0.438,11.602-3.518c6.436-3.08,1.527-32.443,1.527-32.443
					s-10.591,0.872-11.734,10.908C197.392,183.196,197.139,198.214,197.139,198.214z"/>
				<path style="opacity:0.25;" d="M197.139,198.214c1.554,2.167,5.166-0.438,11.602-3.518c6.436-3.08,1.527-32.443,1.527-32.443
					s-10.591,0.872-11.734,10.908C197.392,183.196,197.139,198.214,197.139,198.214z"/>
				<path style="fill:#27DEBF;" d="M248.26,142.207c6.242-0.583,20.609,5.565,23.175,10.26c2.693,4.926,16.269,73.375,11.441,80.242
					c-6.058,8.617-37.717,27.02-52.161,27.672c-11.916,0.538-24.06-9.501-26.116-12.54c-3.368-4.979-5.108-76.365-1.796-82.645
					C208.171,155.019,240.307,142.95,248.26,142.207z"/>
				<path style="opacity:0.1;fill:#FFFFFF;" d="M248.26,142.207c6.242-0.583,20.609,5.565,23.175,10.26
					c2.693,4.926,16.269,73.375,11.441,80.242c-6.058,8.617-37.717,27.02-52.161,27.672c-11.916,0.538-24.06-9.501-26.116-12.54
					c-3.368-4.979-5.108-76.365-1.796-82.645C208.171,155.019,240.307,142.95,248.26,142.207z"/>
				<path style="opacity:0.2;" d="M248.26,142.207c6.242-0.583,20.609,5.565,23.175,10.26c2.693,4.926,16.269,73.375,11.441,80.242
					c-6.058,8.617-37.717,27.02-52.161,27.672c-11.916,0.538-24.06-9.501-26.116-12.54c-3.368-4.979-5.108-76.365-1.796-82.645
					C208.171,155.019,240.307,142.95,248.26,142.207z"/>
				<path style="fill:#27DEBF;" d="M201.094,201.599c-0.044-2.99-0.067-5.947-0.066-8.808c0-1.144,0.004-2.273,0.012-3.383
					c0.015-2.219,0.046-4.36,0.092-6.391c0.023-1.016,0.05-2.004,0.082-2.96c0.047-1.435,0.103-2.799,0.169-4.079
					c0.066-1.28,0.141-2.475,0.226-3.573c0.029-0.366,0.058-0.721,0.089-1.064c0.275-3.092,0.642-5.263,1.107-6.146
					c0.152-0.288,0.331-0.579,0.524-0.873c0.063-0.096,0.133-0.193,0.201-0.29c0.138-0.198,0.284-0.397,0.439-0.597
					c0.09-0.117,0.182-0.233,0.278-0.351c0.153-0.187,0.318-0.376,0.485-0.565c0.106-0.119,0.206-0.238,0.317-0.358
					c0.251-0.271,0.516-0.543,0.793-0.816c0.179-0.176,0.369-0.353,0.558-0.53c0.126-0.118,0.251-0.235,0.381-0.353
					c0.212-0.192,0.43-0.385,0.653-0.578c0.109-0.094,0.221-0.189,0.332-0.283c0.249-0.211,0.499-0.421,0.76-0.632
					c5.788,1.904,11.264,3.715,11.43,3.807c0.356,0.197,6.327,3.191,6.721,11.939l2.679,35.324l0.262,3.356
					c0.28,4.688,7.635,47.595-5.789,46.125c-0.174-0.019-0.357-0.032-0.533-0.05c-9.136-2.469-17.07-9.226-18.695-11.628
					c-0.263-0.389-0.516-1.183-0.758-2.32c-0.097-0.455-0.192-0.964-0.284-1.525c-0.047-0.28-0.092-0.573-0.138-0.878
					c-0.136-0.915-0.268-1.94-0.395-3.062c-0.042-0.374-0.084-0.758-0.125-1.153c-0.618-5.92-1.111-14.133-1.436-22.946
					c-0.065-1.763-0.123-3.549-0.174-5.346c-0.034-1.198-0.065-2.401-0.093-3.604c-0.014-0.602-0.027-1.204-0.039-1.805
					C201.133,203.997,201.112,202.795,201.094,201.599z"/>
				<path style="opacity:0.4;" d="M201.92,169.21c0.241-1.958,0.533-3.352,0.883-4.015c5.368-10.176,37.504-22.245,45.457-22.988
					c6.242-0.583,20.609,5.565,23.175,10.259c0.417,0.763,1.085,2.994,1.898,6.243c-11.985,7.584-43.107,24.778-46.516,23.827
					c-4.189-1.169-24.494-12.764-24.89-13.309L201.92,169.21z"/>
				<g>
					<path style="fill:#27DEBF;" d="M199.563,215.815c0.36-0.217,5.536-4.717,6.148-5.086c1.079-0.649,18.11,9.168,19.746,10.924
						c1.138,1.222,0.954,21.406,0.419,22.882c-0.192,0.531-5.957,4.557-6.148,5.086c-0.534,1.477-18.485-8.457-19.748-11.084
						C198.715,235.911,197.977,216.769,199.563,215.815z"/>
					<path style="opacity:0.18;" d="M199.563,215.815c0.36-0.217,5.536-4.717,6.148-5.086c1.079-0.649,18.11,9.168,19.746,10.924
						c1.138,1.222,0.954,21.406,0.419,22.882c-0.192,0.531-5.957,4.557-6.148,5.086c-0.534,1.477-18.485-8.457-19.748-11.084
						C198.715,235.911,197.977,216.769,199.563,215.815z"/>
					<path style="fill:#27DEBF;" d="M219.308,226.74c1.138,1.222,0.954,21.406,0.419,22.883
						c-0.534,1.477-18.485-8.457-19.748-11.084c-1.264-2.627-2.002-21.769-0.416-22.723
						C200.642,215.166,217.672,224.983,219.308,226.74z"/>
					<path style="opacity:0.4;" d="M205.707,210.733c-0.607,0.36-5.782,4.869-6.139,5.08c1.071-0.645,18.104,9.172,19.736,10.923
						l6.15-5.081C223.822,219.893,206.789,210.076,205.707,210.733z"/>
					<path style="opacity:0.3;" d="M219.308,226.74c1.138,1.222,0.954,21.406,0.419,22.883c-0.534,1.477-18.485-8.457-19.748-11.084
						c-1.264-2.627-2.002-21.769-0.416-22.723C200.642,215.166,217.672,224.983,219.308,226.74z"/>
					<path style="fill:#27DEBF;" d="M225.454,221.656c-1.262-0.702-4.742,1.481-6.208,2.932c-1.466,1.451-2.712,7.865-6.671,9.147
						c-3.959,1.282-10.023-3.643-11.458-6.972c-1.436-3.329-3.36-10.4-1.589-13.099c1.771-2.698,5.078-4.332,8.038-2.994
						C210.528,212.008,224.886,218.538,225.454,221.656z"/>
					<path style="opacity:0.1;" d="M225.454,221.656c-1.262-0.702-4.742,1.481-6.208,2.932c-1.466,1.451-2.712,7.865-6.671,9.147
						c-3.959,1.282-10.023-3.643-11.458-6.972c-1.436-3.329-3.36-10.4-1.589-13.099c1.771-2.698,5.078-4.332,8.038-2.994
						C210.528,212.008,224.886,218.538,225.454,221.656z"/>
					<path style="fill:#37474F;" d="M207.508,225.719c0.928,0.425,1.643,1.624,1.597,2.68c-0.046,1.055-0.838,1.59-1.768,1.195
						c-0.93-0.395-1.645-1.595-1.597-2.68C205.789,225.829,206.58,225.294,207.508,225.719z"/>
				</g>
				<path style="fill:#27DEBF;" d="M227.271,182.572c0,0-2.813-8.151-13.275-13.259c-10.461-5.108-10.631-3.252-13.449,2.594
					c-2.536,5.26-2.364,24.203-2.374,26.017c-0.01,1.814-2.194,1.628-2.676-9.929c-0.482-11.557,0.361-22.712,10.645-30.309
					c13.844-10.227,35.848-17.81,46.577-16.255c10.729,1.555,20.589,6.196,20.613,17.278
					C273.333,158.709,260.917,177.977,227.271,182.572z"/>
				<path style="opacity:0.1;" d="M227.271,182.572c0,0-2.813-8.151-13.275-13.259c-10.461-5.108-10.631-3.252-13.449,2.594
					c-2.536,5.26-2.364,24.203-2.374,26.017c-0.01,1.814-2.194,1.628-2.676-9.929c-0.482-11.557,0.361-22.712,10.645-30.309
					c13.844-10.227,35.848-17.81,46.577-16.255c10.729,1.555,20.589,6.196,20.613,17.278
					C273.333,158.709,260.917,177.977,227.271,182.572z"/>
			</g>
			<g>
				<g>
					<path style="fill:#27DEBF;" d="M255.545,155.389c0,0,4.08,2.067,4.455,4.574s2,8.482,1.074,10.203
						c-0.926,1.72-4.089,2.137-4.575,0.994c-0.486-1.143-1.367-8.347-2.17-10.178c-0.803-1.831-3.964-4.027-3.964-4.027
						L255.545,155.389z"/>
					<path style="fill:#27DEBF;" d="M231.792,162.598c0,0,4.031,1.765,4.405,4.272c0.374,2.507,2.034,8.239,1.108,9.96
						c-0.926,1.72-4.089,2.137-4.575,0.994c-0.486-1.143-1.368-8.347-2.17-10.178c-0.803-1.831-3.995-3.573-3.995-3.573
						L231.792,162.598z"/>
				</g>
				<g style="opacity:0.3;">
					<path style="fill:#FFFFFF;" d="M255.545,155.389c0,0,4.08,2.067,4.455,4.574s2,8.482,1.074,10.203
						c-0.926,1.72-4.089,2.137-4.575,0.994c-0.486-1.143-1.367-8.347-2.17-10.178c-0.803-1.831-3.964-4.027-3.964-4.027
						L255.545,155.389z"/>
					<path style="fill:#FFFFFF;" d="M231.792,162.598c0,0,4.031,1.765,4.405,4.272c0.374,2.507,2.034,8.239,1.108,9.96
						c-0.926,1.72-4.089,2.137-4.575,0.994c-0.486-1.143-1.368-8.347-2.17-10.178c-0.803-1.831-3.995-3.573-3.995-3.573
						L231.792,162.598z"/>
				</g>
			</g>
			<g>
				<g>
					<path style="fill:#455A64;" d="M259.22,120.469L259.22,120.469c2.269-0.767,5.044-0.033,7.787,2.384
						c5.481,4.83,8.754,14.551,7.311,21.712c-0.758,3.76-2.67,6.049-5.103,6.694l0,0.001l-62.853,18.988l-10.492-30.631
						l17.694-2.707l6.496-2.124l21.834-6.915l3.009-1.084L259.22,120.469z"/>
					<path style="fill:#37474F;" d="M203.88,141.908c5.48,4.83,8.754,14.551,7.311,21.712c-1.443,7.161-7.055,9.051-12.535,4.221
						c-5.481-4.83-8.754-14.551-7.311-21.712C192.787,138.968,198.4,137.078,203.88,141.908z"/>
				</g>
				<path style="fill:#27DEBF;" d="M243.71,127.216c0,0,13.211,7.708,11.835,28.173l-5.181,1.565c0,0,1.53-19.717-12.97-27.659
					L243.71,127.216z"/>
				<path style="fill:#27DEBF;" d="M220.061,134.786c0,0,13.231,7.276,11.855,27.741l-5.198,1.573c0,0,1.346-19.248-13.154-27.189
					L220.061,134.786z"/>
				<g style="opacity:0.15;">
					<path d="M253.992,141.448c1.22,3.776,1.927,8.385,1.553,13.941l-5.18,1.565c0,0,0.499-6.51-1.821-13.555L253.992,141.448z"/>
					<path d="M230.707,149.788c1.005,3.516,1.547,7.73,1.21,12.739l-5.198,1.573c0,0,0.397-5.775-1.619-12.303L230.707,149.788z"/>
				</g>
				<path style="fill:#263238;" d="M195.599,148.949c2.103-1.345,4.348,0.473,5.385,2.275c0.895,1.555,1.027,3.282,1.028,5.045
					c0,0.705-0.016,1.517-0.427,2.122c-0.37,0.544-1.017,0.804-1.495,0.24c-0.189-0.223-0.015-0.9,0.353-0.824
					c0.329,0.068,0.228,0.176,0.311,0.058c0.098-0.139,0.062-0.511,0.064-0.682c0.008-0.677-0.123-1.341-0.244-2.004
					c-0.19-1.035-0.382-2.034-0.914-2.957c-0.457-0.792-1.083-1.595-1.872-2.075c-0.672-0.409-1.697-0.573-1.94,0.365
					c-0.389,1.496,0.49,3.523,0.961,4.927c0.682,2.03,1.583,4.118,2.97,5.775c0.773,0.923,2.918,2.962,4.276,2.147
					c1.249-0.749,1.237-3.394,1.249-4.604c0.02-1.987-0.384-3.95-1.039-5.821c-0.702-2.007-1.666-4.381-3.113-5.971
					c-0.621-0.683-1.3-1.143-2.171-1.446c-0.669-0.233-2.235-0.727-2.503,0.226c-0.066,0.234-0.528,0.687-0.751,0.347
					c-0.776-1.186,0.374-2.195,1.54-2.479c1.854-0.453,3.745,0.13,5.211,1.278c2.105,1.649,3.285,4.656,4.202,7.087
					c0.981,2.603,1.465,5.411,1.221,8.192c-0.19,2.171-0.893,4.903-3.347,5.451c-2.632,0.589-5.381-1.34-6.859-3.371
					c-1.682-2.312-2.651-5.156-3.205-7.939C194.145,152.581,193.871,150.054,195.599,148.949z"/>
			</g>
		</g>
		<g id="XMLID_52_">
			<g id="XMLID_59_">
				<path style="fill:#FFA8A7;" d="M302.522,229.267l-41.183,1.49l-1.131,67.412c0,0-10.979,8.031-18.038,18.081
					c-5.122,7.292-21.807,38.104-24.769,42.748c-2.962,4.644-5.549,8.701-5.549,8.701c-0.542,1.553-0.233,4.891,3.444,6.757
					c3.677,1.867,7.889,0.725,8.685-0.646c0,0,0.746-1.739,7.092-7.774c6.346-6.036,52.009-49.397,54.445-52.361
					c3.654-4.447,5.811-8.482,10.202-24.096C301.164,270.225,302.963,237.719,302.522,229.267z"/>
				<path style="fill:#455A64;" d="M303.125,227.624c0,0,0.046,13.43-1.856,34.748c-1.902,21.319-3.585,36.739-12.05,48.354
					c-8.465,11.615-21.161,23.913-25.187,27.588c0,0-16.221-4.089-23.821-21.468l12.131-17.234l-6.417-64.389L303.125,227.624z"/>
				<path style="fill:#37474F;" d="M251.314,301.232c0,0,4.704,15.096,5.383,17.614c0.679,2.518,6.028,19.493,6.028,19.493
					s0.512-22.742-0.491-26.869C261.229,307.343,251.314,301.232,251.314,301.232z"/>
				<path style="fill:#37474F;" d="M301.89,234.739c0,0,0.591,10.682-5.272,18.696c-5.863,8.014-10.249,10.309-10.249,10.309
					l5.05,35.497l-9.921-36.667L301.89,234.739z"/>
				<g id="XMLID_60_">
					<path id="XMLID_64_" style="fill:#455A64;" d="M205.385,373.747c-0.802-0.25-2.482,2.448-2.667,3.394
						c-0.185,0.946,0.402,3.154,1.322,5.288c0.919,2.134,1.867,4.761,2.174,8.086c0.253,2.741,0.788,6.789,2.936,11.236
						c2.149,4.447,8.319,12.198,19.337,10.265c6.682-1.172,7.405-4.025,7.146-5.566L205.385,373.747z"/>
					<path id="XMLID_63_" style="fill:#27DEBF;" d="M226.346,372.448c-0.892,3.338-2.208,12.552,2.912,19.56
						c3.449,4.72,5.494,9.514,4.81,13.992c-0.711,4.658-17.838,0.428-20.38-2.661c-2.337-2.841-3.879-5.949-4.908-10.95
						c-0.724-3.516-0.438-5.953-1.278-8.543c-0.908-2.799-2.972-6.147-2.577-8.799c0.217-1.457,2.132-3.897,3.921-5.87
						c1.641-1.81,2.993-3.646,4.103-3.214l-0.676,1.072c0.839,1.254,2.416,2.165,3.568,2.824c0.569,0.326,0.639,2.723,1.34,2.866
						c0.702,0.143,0.513-1.783,1.784-2.249C223.104,368.958,226.346,372.448,226.346,372.448z"/>
					<path id="XMLID_62_" style="opacity:0.4;" d="M225.946,372.456c-0.892,3.338-2.208,12.553,2.912,19.56
						c3.449,4.72,5.494,9.514,4.81,13.992c-0.711,4.658-17.838,0.428-20.38-2.661c-2.337-2.841-3.879-5.949-4.908-10.95
						c-0.724-3.516-0.438-5.953-1.278-8.543c-0.908-2.799-2.972-6.147-2.577-8.799c0.217-1.457,2.132-3.897,3.921-5.87
						c1.641-1.81,2.993-3.646,4.103-3.214l-0.676,1.072c0.839,1.254,2.416,2.165,3.568,2.824c0.568,0.326,0.639,2.723,1.339,2.866
						c0.702,0.143,0.513-1.783,1.784-2.249C222.703,368.965,225.946,372.456,225.946,372.456z"/>
					<path id="XMLID_61_" style="fill:#FAFAFA;" d="M213.689,403.339c0,0,3.081-6.853,10.426-8.179
						c7.345-1.326,9.252,1.533,10.069,2.531c0.818,0.999,4.475,6.839-0.099,10.576C234.085,408.268,222.454,413.546,213.689,403.339
						z"/>
				</g>
			</g>
			<g id="XMLID_58_">
				<path style="fill:#FFA8A7;" d="M300.323,403.392c0,0-4.966-57.445-7.304-82.2c-4.584-28.629-13.727-57.706-13.727-57.706
					s6.188-3.448,11.925-11.685c8.347-11.987,8.148-22.076,8.148-22.076l-4.818-0.329l-52.154,2.136
					c0.158,8.619-0.164,20.718,1.017,31.885c2.423,22.903,24.654,63.432,24.654,63.432c-0.21,3.161-2.485,16.564,0.741,28.271
					c5.09,18.47,16.314,41.654,18.417,51.735c2.103,10.081,0,0,0,0l2.086,8.457l12.974-3.2L300.323,403.392L300.323,403.392z"/>
			</g>
			<path style="fill:#455A64;" d="M241.172,229.058c-0.849,9.665-1.521,17.627-1.391,24.725c0.13,7.099,2.151,16.791,5.423,26.592
				c3.273,9.801,12.758,33.501,13.982,36.959c1.223,3.458,4.25,26.18,4.25,26.18s20.41,4.437,34.079-4.543
				c0,0-1.963-22.78-3.229-28.557c-1.266-5.777-12.787-47.841-12.787-47.841s20.662-13.753,21.024-33.306L241.172,229.058z"/>
			<g id="XMLID_53_">
				<path id="XMLID_57_" style="fill:#455A64;" d="M287.378,420.068c-0.801,0.357-0.254,3.632,0.254,4.502
					c0.508,0.87,2.135,2.558,4.329,3.596c2.194,1.038,4.051,2.48,6.278,5.164c1.583,1.907,5.606,5.813,10.361,7.815
					c4.755,2.001,10.788,1.652,16.092-0.931c5.305-2.582,5.683-4.154,5.328-6.266L287.378,420.068z"/>
				<path id="XMLID_56_" style="fill:#27DEBF;" d="M302.907,404.576c1.606,3.232,5.812,11.839,12.401,15.417
					c5.238,2.844,12.183,5.908,14.74,9.889c2.659,4.141-6.625,8.045-10.794,8.324c-3.25,0.217-7.535,0.643-10.971-1.054
					c-1.978-0.977-3.385-1.926-4.787-2.982c-2.995-2.256-5.285-5.241-7.474-7.056c-2.189-1.815-6.584-3.36-8.105-5.711
					c-0.836-1.291-1.021-4.526-0.981-7.307c0.037-2.552-0.403-4.891,0.766-5.319l0.354,1.437c1.654,0.005,3.473-0.136,4.831-0.414
					c0.671-0.138,2.381,1.693,3.029,1.321c0.649-0.373-0.829-1.752-0.155-2.995C297.956,404.08,302.907,404.576,302.907,404.576z"/>
				<path id="XMLID_55_" style="opacity:0.4;" d="M302.907,404.576c1.606,3.232,5.812,11.839,12.401,15.417
					c5.238,2.844,12.183,5.908,14.74,9.889c2.659,4.141-6.625,8.045-10.794,8.324c-3.25,0.217-7.535,0.643-10.971-1.054
					c-1.978-0.977-3.385-1.926-4.787-2.982c-2.995-2.256-5.285-5.241-7.474-7.056c-2.189-1.815-6.584-3.36-8.105-5.711
					c-0.836-1.291-1.021-4.526-0.981-7.307c0.037-2.552-0.403-4.891,0.766-5.319l0.354,1.437c1.654,0.005,3.473-0.136,4.831-0.414
					c0.671-0.138,2.381,1.693,3.029,1.321c0.649-0.373-0.829-1.752-0.155-2.995C297.956,404.08,302.907,404.576,302.907,404.576z"/>
				<path id="XMLID_54_" style="fill:#FAFAFA;" d="M308.282,437.152c0,0,0.468-8.318,7.154-12.327s9.585-1.248,10.753-0.574
					c1.168,0.673,6.918,4.353,3.831,9.695C330.02,433.946,321.494,443.142,308.282,437.152z"/>
			</g>
		</g>
		<g id="XMLID_38_">
			<path id="XMLID_51_" style="fill:#27DEBF;" d="M302.857,169.774c-1.26-9.139-6.926-19.5-21.092-20.063l-18.276,0.87
				c-4.5,1.171-16.751,4.17-21.447,5.815l-0.881,37.085c0,0-1.12,28.583-0.774,43.885c13.089,8.299,44.988,9.956,62.879-3.619
				C303.796,221.115,304.105,178.825,302.857,169.774z"/>
			<path id="XMLID_50_" style="opacity:0.4;" d="M302.857,169.774c-1.26-9.139-6.926-19.5-21.092-20.063l-18.276,0.87
				c-4.5,1.171-16.751,4.17-21.447,5.815l-0.881,37.085c0,0-1.12,28.583-0.774,43.885c13.089,8.299,44.988,9.956,62.879-3.619
				C303.796,221.115,304.105,178.825,302.857,169.774z"/>
			<g id="XMLID_39_">
				<g id="XMLID_47_">
					<path style="fill:#263238;" d="M301.768,110.31c-0.33-10.158-8.832-18.126-18.991-17.796
						c-9.503,0.309-17.086,7.771-17.755,17.049l-8.461-5.797c0,0-3.056-0.422-5.345,2.077c-2.245,2.45-0.707,9.84,2.421,17.026
						c0,0,3.251,13.162,4.454,15.303c1.202,2.141,3.56,2.684,3.56,2.684l-0.431-8.036l33.382-2.991l-3.349-2.294
						C297.669,124.49,302.013,117.861,301.768,110.31z"/>
					<path id="XMLID_49_" style="fill:#FFA8A7;" d="M260.565,123.259c-1.045,0.671-2.631-1.326-3.99-2.659
						c-1.359-1.332-5.709-3.071-7.703,1.507c-2.031,4.666,2.236,10.605,5.647,11.556c5.879,1.638,6.632-2.124,6.632-2.124
						l1.126,20.979c5.198,5.44,22.308,3.546,18.918-1.17l-0.224-6.389c0,0,5.299,0.629,7.859,0.148
						c4.259-0.801,6.842-4.266,7.99-8.941c1.844-7.509,2.441-13.544,0.196-28.122c-2.46-15.978-21.124-15.539-30.993-8.87
						C256.153,105.843,260.565,123.259,260.565,123.259z"/>
					<path style="fill:#263238;" d="M300.827,93.019c-1.37-0.715-3.01-0.743-4.526-0.439c0.301-2.31-1.3-4.541-3.367-5.436
						c-2.504-1.084-4.741-0.646-6.899,1.046c0.424-1.635-1.086-3.266-2.742-3.596c-1.656-0.331-3.344,0.266-4.91,0.897
						c-2.331,0.939-4.624,1.977-6.993,2.815c-4.175,1.478-8.631,2.358-12.39,4.701c-0.887,0.553-1.742,1.199-2.339,2.058
						c-0.835,1.201-1.093,2.728-1,4.188c0.031,0.486,0.12,0.961,0.228,1.43c-0.288-0.302-0.62-0.568-1.01-0.761
						c-1.81-0.897-3.97-0.104-4.825,1.771l6.386,3.165c-0.135,1.277-0.27,2.554-0.376,3.835c-0.281,3.381-0.866,7.324-0.045,10.668
						c0.093,0.378,0.163,0.818,0.432,1.119c0.331,0.369,0.63,0.65,0.883,1.108c0.379,0.684,0.758,1.368,1.137,2.052
						c0.506,0.913,1.312,1.965,2.494,1.828c0.662-0.077,1.002-1.005,1.145-1.543c1.59-5.968,1.537-12.32,3.54-18.163
						c0.058-0.168,0.123-0.345,0.26-0.458c0.215-0.178,0.529-0.144,0.805-0.101c3.051,0.481,6.101,0.978,9.168,1.343
						c6.949,0.827,14.4,0.88,20.455-2.63c2.358-1.367,6.322-4.184,6.687-7.137C303.215,95.246,302.197,93.734,300.827,93.019z"/>
					<path id="XMLID_48_" style="fill:#F28F8F;" d="M280.971,144.959c0,0-9.617-1.615-13.015-3.282
						c-2.274-1.116-4.183-3.116-4.766-4.419c0,0,0.718,2.815,2.798,5.303c2.544,3.044,15.065,4.939,15.065,4.939L280.971,144.959z"
						/>
				</g>
				<g id="XMLID_40_">
					<path id="XMLID_46_" style="fill:#263238;" d="M277.901,121.194c0.032,0.981-0.708,1.798-1.651,1.826
						c-0.944,0.028-1.735-0.744-1.767-1.725c-0.032-0.98,0.707-1.798,1.651-1.826C277.078,119.441,277.869,120.214,277.901,121.194z
						"/>
					<path id="XMLID_45_" style="fill:#263238;" d="M275.432,113.605l-4.174,2.12c-0.563-1.197-0.086-2.643,1.066-3.228
						C273.478,111.911,274.869,112.407,275.432,113.605z"/>
					<path id="XMLID_44_" style="fill:#F28F8F;" d="M279.843,134.048l4.424,1.498c-0.392,1.267-1.7,1.958-2.922,1.545
						C280.124,136.678,279.451,135.315,279.843,134.048z"/>
					<path id="XMLID_43_" style="fill:#263238;" d="M296.212,115.375l-3.743-2.649c0.696-1.031,2.098-1.274,3.132-0.542
						S296.908,114.344,296.212,115.375z"/>
					<path style="fill:#263238;" d="M267.963,116.008l-14.994,3.13c0,0,2.354-0.19,4.328,2.197l10.613-2.023L267.963,116.008z"/>
					<path id="XMLID_42_" style="fill:#263238;" d="M295.247,120.877c0.032,0.98-0.708,1.798-1.652,1.826
						c-0.944,0.028-1.735-0.744-1.766-1.725c-0.032-0.98,0.707-1.798,1.651-1.826C294.424,119.124,295.215,119.896,295.247,120.877z
						"/>
					<g>
						<path style="fill:#263238;" d="M302.567,115.348c-0.314-0.037-0.641-0.072-0.98-0.103c-3.164-0.289-7.308-0.314-9.821,0.503
							c-3.15,1.029-4.274,2.133-6.009,2.175c-1.854,0.026-3.007-1.039-6.332-1.948c-2.651-0.719-7.085-0.537-10.484-0.126
							c-0.365,0.044-0.719,0.092-1.056,0.141c-0.582,0.085-1.226,0.88-1.2,1.795c0.026,0.915,0.691,1.632,0.97,2.044
							c0.124,0.182,0.24,0.446,0.329,0.824c0.332,1.424,0.507,4.161,1.177,5.671c0.269,0.606,0.659,1.349,1.305,2.021
							c0.211,0.217,0.428,0.41,0.674,0.591c0.128,0.092,0.255,0.178,0.391,0.264c0.343,0.212,0.727,0.396,1.166,0.548
							c0.066,0.022,0.131,0.045,0.197,0.063c0.1,0.029,0.206,0.062,0.312,0.089c0.106,0.027,0.214,0.051,0.326,0.076
							c0.32,0.068,0.667,0.121,1.037,0.147c0.143,0.015,0.292,0.023,0.444,0.03c0.178,0.004,0.365,0.008,0.557,0.005
							c4.308-0.06,6.145-2.184,7.254-4.363c1.111-2.175,0.891-5.222,2.876-5.251c0.066,0,0.129,0.001,0.189,0.008
							c0.06,0.004,0.121,0.014,0.175,0.026c1.461,0.323,1.231,3.121,2.118,5.119c0.341,0.767,0.772,1.527,1.368,2.175
							c0.105,0.117,0.213,0.227,0.329,0.334c0.058,0.056,0.116,0.107,0.177,0.157c0.061,0.052,0.121,0.102,0.185,0.151
							c0.056,0.044,0.111,0.086,0.169,0.127c0.098,0.069,0.141,0.099,0.183,0.127c0.048,0.033,0.096,0.063,0.146,0.092
							c0.032,0.022,0.066,0.042,0.101,0.063c0.489,0.288,1.051,0.519,1.703,0.67c0.051,0.011,0.104,0.024,0.158,0.034
							c0.615,0.132,1.31,0.196,2.095,0.176c4.033-0.092,5.468-2.528,6.156-4.064c0.685-1.537,0.984-4.275,1.335-5.719
							c0.078-0.32,0.223-0.567,0.38-0.755c0.299-0.356,0.881-1.204,0.948-2.117C303.682,116.233,303.108,115.412,302.567,115.348z
							 M281.747,123.783c-0.199,0.833-0.615,2.034-1.549,3.034l-0.003,0.001c-0.943,1.002-2.416,1.797-4.727,1.802
							c-2.336,0.007-3.68-0.961-4.475-2.11c-0.05-0.071-0.098-0.143-0.14-0.212c-0.047-0.072-0.089-0.141-0.128-0.212
							c-0.039-0.065-0.074-0.132-0.107-0.199c-0.031-0.059-0.061-0.12-0.088-0.179c-0.025-0.048-0.047-0.095-0.066-0.143
							c-0.022-0.044-0.041-0.087-0.057-0.128c-0.03-0.071-0.06-0.145-0.088-0.215l0-0.002c-0.084-0.216-0.155-0.424-0.214-0.627
							c-0.003-0.004-0.003-0.009-0.006-0.016c-0.038-0.129-0.072-0.255-0.104-0.376c-0.056-0.219-0.1-0.425-0.137-0.607
							c-0.008-0.04-0.016-0.079-0.023-0.116c-0.008-0.037-0.016-0.074-0.023-0.111c-0.305-1.502-0.645-4.459,0.108-5.14
							c0.726-0.656,2.724-1.411,5.925-1.151c0.109,0.003,0.224,0.014,0.341,0.027c0.491,0.05,0.98,0.126,1.461,0.23
							c0.191,0.039,0.38,0.085,0.566,0.132c0.5,0.127,0.983,0.278,1.419,0.447c0.151,0.058,0.296,0.117,0.433,0.178
							c0.165,0.069,0.321,0.145,0.469,0.221c0.032,0.016,0.062,0.031,0.094,0.049c0.06,0.03,0.116,0.061,0.171,0.095
							c0.44,0.247,0.771,0.514,0.946,0.773C282.369,120.14,282.141,122.099,281.747,123.783z M300.466,122.8
							c-0.269,1.181-0.849,3.732-3.117,4.884c-0.646,0.329-1.438,0.544-2.395,0.575c-2.541,0.095-3.96-0.955-4.754-2.171
							c-0.005-0.008-0.01-0.016-0.013-0.022c-0.031-0.047-0.06-0.093-0.086-0.137c-0.034-0.054-0.065-0.108-0.094-0.159
							c-0.015-0.026-0.031-0.055-0.046-0.083c-0.042-0.078-0.083-0.158-0.119-0.236c-0.044-0.092-0.084-0.182-0.123-0.277
							c-0.021-0.044-0.038-0.089-0.056-0.134c-0.01-0.026-0.018-0.05-0.028-0.076c-0.015-0.039-0.028-0.076-0.041-0.113
							c-0.01-0.031-0.023-0.061-0.03-0.088c-0.139-0.405-0.228-0.789-0.288-1.119c-0.298-1.671-0.438-3.621,0.184-4.559
							c0.621-0.938,3.005-1.996,5.288-2.326c0.526-0.076,1.018-0.121,1.476-0.139c0.059-0.002,0.118-0.004,0.175-0.005
							c0.065-0.002,0.126-0.003,0.188-0.003c0.175-0.003,0.346,0.001,0.51,0.005c0.062,0.002,0.124,0.004,0.186,0.008
							c0.083,0.006,0.163,0.009,0.241,0.017c0.137,0.008,0.271,0.022,0.4,0.039c0.263,0.031,0.509,0.071,0.737,0.121
							c0.059,0.013,0.117,0.026,0.174,0.04c0.013,0.002,0.029,0.005,0.045,0.011c0.037,0.009,0.077,0.018,0.117,0.031
							c0.059,0.013,0.12,0.033,0.176,0.049c0.072,0.02,0.145,0.045,0.211,0.067c0.126,0.043,0.24,0.088,0.346,0.136
							c0.022,0.008,0.04,0.016,0.061,0.027c0.346,0.154,0.606,0.326,0.782,0.495C301.251,118.312,300.807,121.286,300.466,122.8z"/>
						<path style="fill:#27DEBF;" d="M281.747,123.783c-0.199,0.833-0.615,2.034-1.549,3.034l-0.003,0.001
							c-0.943,1.002-2.416,1.797-4.727,1.802c-2.336,0.007-3.68-0.961-4.475-2.11c-0.05-0.071-0.098-0.143-0.14-0.212
							c-0.047-0.072-0.089-0.141-0.128-0.212c-0.039-0.065-0.074-0.132-0.107-0.199c-0.031-0.059-0.061-0.12-0.088-0.179
							c-0.025-0.048-0.047-0.095-0.066-0.143c-0.022-0.044-0.041-0.087-0.057-0.128c-0.03-0.071-0.06-0.145-0.088-0.215l0-0.002
							c-0.084-0.216-0.155-0.424-0.214-0.627c-0.003-0.004-0.003-0.009-0.006-0.016c-0.038-0.129-0.072-0.255-0.104-0.376
							c-0.056-0.219-0.1-0.425-0.137-0.607c-0.008-0.04-0.016-0.079-0.023-0.116c-0.008-0.037-0.016-0.074-0.023-0.111
							c-0.305-1.502-0.645-4.459,0.108-5.14c0.726-0.656,2.724-1.411,5.925-1.151c0.109,0.003,0.224,0.014,0.341,0.027
							c0.491,0.05,0.98,0.126,1.461,0.23c0.191,0.039,0.38,0.085,0.566,0.132c0.5,0.127,0.983,0.278,1.419,0.447
							c0.151,0.058,0.296,0.117,0.433,0.178c0.165,0.069,0.321,0.145,0.469,0.221c0.032,0.016,0.062,0.031,0.094,0.049
							c0.06,0.03,0.116,0.061,0.171,0.095c0.44,0.247,0.771,0.514,0.946,0.773C282.369,120.14,282.141,122.099,281.747,123.783z"/>
						<path style="opacity:0.4;" d="M281.747,123.783c-0.199,0.833-0.615,2.034-1.549,3.034l-0.003,0.001
							c-0.943,1.002-2.416,1.797-4.727,1.802c-2.336,0.007-3.68-0.961-4.475-2.11c-0.05-0.071-0.098-0.143-0.14-0.212
							c-0.047-0.072-0.089-0.141-0.128-0.212c-0.039-0.065-0.074-0.132-0.107-0.199c-0.031-0.059-0.061-0.12-0.088-0.179
							c-0.025-0.048-0.047-0.095-0.066-0.143c-0.022-0.044-0.041-0.087-0.057-0.128c-0.03-0.071-0.06-0.145-0.088-0.215l0-0.002
							c-0.084-0.216-0.155-0.424-0.214-0.627c-0.003-0.004-0.003-0.009-0.006-0.016c-0.038-0.129-0.072-0.255-0.104-0.376
							c-0.056-0.219-0.1-0.425-0.137-0.607c-0.008-0.04-0.016-0.079-0.023-0.116c-0.008-0.037-0.016-0.074-0.023-0.111
							c-0.305-1.502-0.645-4.459,0.108-5.14c0.726-0.656,2.724-1.411,5.925-1.151c0.109,0.003,0.224,0.014,0.341,0.027
							c0.491,0.05,0.98,0.126,1.461,0.23c0.191,0.039,0.38,0.085,0.566,0.132c0.5,0.127,0.983,0.278,1.419,0.447
							c0.151,0.058,0.296,0.117,0.433,0.178c0.165,0.069,0.321,0.145,0.469,0.221c0.032,0.016,0.062,0.031,0.094,0.049
							c0.06,0.03,0.116,0.061,0.171,0.095c0.44,0.247,0.771,0.514,0.946,0.773C282.369,120.14,282.141,122.099,281.747,123.783z"/>
						<path style="fill:#27DEBF;" d="M300.466,122.8c-0.269,1.181-0.849,3.732-3.117,4.884c-0.646,0.329-1.438,0.544-2.395,0.575
							c-2.541,0.095-3.96-0.955-4.754-2.171c-0.005-0.008-0.01-0.016-0.013-0.022c-0.031-0.047-0.06-0.093-0.086-0.137
							c-0.034-0.054-0.065-0.108-0.094-0.159c-0.015-0.026-0.031-0.055-0.046-0.083c-0.042-0.078-0.083-0.158-0.119-0.236
							c-0.044-0.092-0.084-0.182-0.123-0.277c-0.021-0.044-0.038-0.089-0.056-0.134c-0.01-0.026-0.018-0.05-0.028-0.076
							c-0.015-0.039-0.028-0.076-0.041-0.113c-0.01-0.031-0.023-0.061-0.03-0.088c-0.139-0.405-0.228-0.789-0.288-1.119
							c-0.298-1.671-0.438-3.621,0.184-4.559c0.621-0.938,3.005-1.996,5.288-2.326c0.526-0.076,1.018-0.121,1.476-0.139
							c0.059-0.002,0.118-0.004,0.175-0.005c0.065-0.002,0.126-0.003,0.188-0.003c0.175-0.003,0.346,0.001,0.51,0.005
							c0.062,0.002,0.124,0.004,0.186,0.008c0.083,0.006,0.163,0.009,0.241,0.017c0.137,0.008,0.271,0.022,0.4,0.039
							c0.263,0.031,0.509,0.071,0.737,0.121c0.059,0.013,0.117,0.026,0.174,0.04c0.013,0.002,0.029,0.005,0.045,0.011
							c0.037,0.009,0.077,0.018,0.117,0.031c0.059,0.013,0.12,0.033,0.176,0.049c0.072,0.02,0.145,0.045,0.211,0.067
							c0.126,0.043,0.24,0.088,0.346,0.136c0.022,0.008,0.04,0.016,0.061,0.027c0.346,0.154,0.606,0.326,0.782,0.495
							C301.251,118.312,300.807,121.286,300.466,122.8z"/>
						<path style="opacity:0.4;" d="M300.466,122.8c-0.269,1.181-0.849,3.732-3.117,4.884c-0.646,0.329-1.438,0.544-2.395,0.575
							c-2.541,0.095-3.96-0.955-4.754-2.171c-0.005-0.008-0.01-0.016-0.013-0.022c-0.031-0.047-0.06-0.093-0.086-0.137
							c-0.034-0.054-0.065-0.108-0.094-0.159c-0.015-0.026-0.031-0.055-0.046-0.083c-0.042-0.078-0.083-0.158-0.119-0.236
							c-0.044-0.092-0.084-0.182-0.123-0.277c-0.021-0.044-0.038-0.089-0.056-0.134c-0.01-0.026-0.018-0.05-0.028-0.076
							c-0.015-0.039-0.028-0.076-0.041-0.113c-0.01-0.031-0.023-0.061-0.03-0.088c-0.139-0.405-0.228-0.789-0.288-1.119
							c-0.298-1.671-0.438-3.621,0.184-4.559c0.621-0.938,3.005-1.996,5.288-2.326c0.526-0.076,1.018-0.121,1.476-0.139
							c0.059-0.002,0.118-0.004,0.175-0.005c0.065-0.002,0.126-0.003,0.188-0.003c0.175-0.003,0.346,0.001,0.51,0.005
							c0.062,0.002,0.124,0.004,0.186,0.008c0.083,0.006,0.163,0.009,0.241,0.017c0.137,0.008,0.271,0.022,0.4,0.039
							c0.263,0.031,0.509,0.071,0.737,0.121c0.059,0.013,0.117,0.026,0.174,0.04c0.013,0.002,0.029,0.005,0.045,0.011
							c0.037,0.009,0.077,0.018,0.117,0.031c0.059,0.013,0.12,0.033,0.176,0.049c0.072,0.02,0.145,0.045,0.211,0.067
							c0.126,0.043,0.24,0.088,0.346,0.136c0.022,0.008,0.04,0.016,0.061,0.027c0.346,0.154,0.606,0.326,0.782,0.495
							C301.251,118.312,300.807,121.286,300.466,122.8z"/>
					</g>
					<polygon id="XMLID_41_" style="fill:#F28F8F;" points="284.935,121.085 285.499,132.691 292.318,130.977 					"/>
				</g>
			</g>
		</g>
		<path style="fill:#37474F;" d="M242.047,269.372c0,0,15.229,0.691,23.77-0.893c0,0,8.908,31.558,9.372,35.217
			c0.464,3.659-14.847,3.921-17.948,3.502c-3.102-0.419-5.49-0.852-7.859-8.902C247.013,290.246,243.08,277.32,242.047,269.372z"/>
		<g>
			<path style="fill:#FFA8A7;" d="M246.781,154.947c-8.781,1.523-11.941,3.54-14.609,12.784
				c-2.862,9.917-10.862,37.761-12.71,47.693c-1.136,6.103-2.891,9.972,2.288,13.99c6.629,5.142,26.051,19.399,37.768,25.539
				c11.717,6.141,30.221,6.25,30.221,6.25l-12.84-7.77l-0.551-4.704l-36.075-30.063l13.773-40.564
				C254.047,178.102,259.155,158.923,246.781,154.947z"/>
			<g>
				<g id="XMLID_1_">
					<g id="XMLID_36_">
						<path id="XMLID_37_" style="fill:#27DEBF;" d="M265.177,243.121l-0.027,1.204c-0.027,1.215,0.598,2.355,1.633,2.986
							l32.033,19.386c0.518,0.315,1.104,0.477,1.694,0.49c0.584,0.013,1.177-0.123,1.708-0.415l60.275-33.049
							c1.068-0.584,1.742-1.696,1.769-2.911l0.018-0.828l-63.72,34.94L265.177,243.121z"/>
					</g>
					<g id="XMLID_34_" style="opacity:0.5;">
						<path id="XMLID_35_" style="fill:#FFFFFF;" d="M265.177,243.121l-0.027,1.204c-0.027,1.215,0.598,2.355,1.633,2.986
							l32.033,19.386c0.518,0.315,1.104,0.477,1.694,0.49c0.584,0.013,1.177-0.123,1.708-0.415l60.275-33.049
							c1.068-0.584,1.742-1.696,1.769-2.911l0.018-0.828l-63.72,34.94L265.177,243.121z"/>
					</g>
					<g id="XMLID_32_" style="opacity:0.1;">
						<path id="XMLID_33_" d="M265.177,243.121l-0.027,1.204c-0.027,1.215,0.598,2.355,1.633,2.986l32.033,19.386
							c0.518,0.315,1.104,0.477,1.694,0.49c0.584,0.013,1.177-0.123,1.708-0.415l60.275-33.049c1.068-0.584,1.742-1.696,1.769-2.911
							l0.018-0.828l-63.72,34.94L265.177,243.121z"/>
					</g>
					<g id="XMLID_30_">
						<path id="XMLID_31_" style="fill:#27DEBF;" d="M364.281,229.984l-34.841-21.15c-0.62-0.376-1.393-0.393-2.028-0.045
							L265.41,242.79c-0.304,0.167-0.314,0.601-0.017,0.781l35.167,21.354L364.281,229.984z"/>
					</g>
					<g id="XMLID_28_" style="opacity:0.85;">
						<path id="XMLID_29_" style="fill:#FFFFFF;" d="M364.281,229.984l-34.841-21.15c-0.62-0.376-1.393-0.393-2.028-0.045
							L265.41,242.79c-0.304,0.167-0.314,0.601-0.017,0.781l35.167,21.354L364.281,229.984z"/>
					</g>
					<g id="XMLID_26_">
						<polygon id="XMLID_27_" style="fill:#27DEBF;" points="300.856,261.609 282.064,250.211 337.874,219.618 356.766,230.96 
													"/>
					</g>
					<g id="XMLID_24_" style="opacity:0.6;">
						<polygon id="XMLID_25_" style="fill:#FFFFFF;" points="300.856,261.609 282.064,250.211 337.874,219.618 356.766,230.96 
													"/>
					</g>
					<g id="XMLID_22_">
						<polygon id="XMLID_23_" style="fill:#27DEBF;" points="291.619,231.177 291.966,231.387 301.176,236.978 317.978,227.765 
							318.328,227.576 308.771,221.775 						"/>
					</g>
					<g id="XMLID_20_">
						<polygon id="XMLID_21_" style="fill:#27DEBF;" points="291.966,231.387 301.176,236.978 317.978,227.765 308.762,222.174 
													"/>
					</g>
					<g id="XMLID_18_" style="opacity:0.6;">
						<polygon id="XMLID_19_" style="fill:#FFFFFF;" points="291.966,231.387 301.176,236.978 317.978,227.765 308.762,222.174 
													"/>
					</g>
					<g id="XMLID_16_">
						<path id="XMLID_17_" style="fill:#27DEBF;" d="M300.56,264.923l-0.05,2.264c0.584,0.013,1.177-0.123,1.708-0.415
							l60.275-33.049c1.068-0.584,1.742-1.696,1.769-2.911l0.018-0.828L300.56,264.923z"/>
					</g>
					<g id="XMLID_14_" style="opacity:0.03;">
						<path id="XMLID_15_" style="fill:#FFFFFF;" d="M300.56,264.923l-0.05,2.264c0.584,0.013,1.177-0.123,1.708-0.415
							l60.275-33.049c1.068-0.584,1.742-1.696,1.769-2.911l0.018-0.828L300.56,264.923z"/>
					</g>
					<g id="XMLID_12_" style="opacity:0.2;">
						<path id="XMLID_13_" d="M300.56,264.923l-0.05,2.264c0.584,0.013,1.177-0.123,1.708-0.415l60.275-33.049
							c1.068-0.584,1.742-1.696,1.769-2.911l0.018-0.828L300.56,264.923z"/>
					</g>
					<g id="XMLID_10_">
						<path id="XMLID_11_" style="fill:#27DEBF;" d="M301.508,265.447c1.117,0.46,2.399,0.405,3.479-0.192l60.01-32.906
							c1.056-0.579,1.793-1.594,2.022-2.775l7.341-38.542c0.04-0.22,0.063-0.44,0.068-0.66c0.024-1.078-0.383-2.118-1.128-2.891
							l-62.363,34.201c-0.778,0.43-1.326,1.181-1.494,2.053L301.508,265.447z"/>
					</g>
					<g id="XMLID_8_" style="opacity:0.4;">
						<path id="XMLID_9_" style="fill:#FFFFFF;" d="M301.508,265.447c1.117,0.46,2.399,0.405,3.479-0.192l60.01-32.906
							c1.056-0.579,1.793-1.594,2.022-2.775l7.341-38.542c0.04-0.22,0.063-0.44,0.068-0.66c0.024-1.078-0.383-2.118-1.128-2.891
							l-62.363,34.201c-0.778,0.43-1.326,1.181-1.494,2.053L301.508,265.447z"/>
					</g>
					<g id="XMLID_6_">
						<path id="XMLID_7_" style="fill:#27DEBF;" d="M300.56,264.925l0.4,0.241c0.177,0.105,0.359,0.199,0.548,0.28l7.935-41.712
							c0.168-0.872,0.715-1.623,1.494-2.053l62.363-34.201c-0.233-0.244-0.508-0.458-0.808-0.644l-62.49,34.264
							c-0.778,0.43-1.325,1.181-1.494,2.053L300.56,264.925z"/>
					</g>
					<g id="XMLID_4_" style="opacity:0.6;">
						<path id="XMLID_5_" style="fill:#FFFFFF;" d="M300.56,264.925l0.4,0.241c0.177,0.105,0.359,0.199,0.548,0.28l7.935-41.712
							c0.168-0.872,0.715-1.623,1.494-2.053l62.363-34.201c-0.233-0.244-0.508-0.458-0.808-0.644l-62.49,34.264
							c-0.778,0.43-1.325,1.181-1.494,2.053L300.56,264.925z"/>
					</g>
					<path style="fill:#27DEBF;" d="M310.03,222.467l-0.941-0.574c-0.285,0.367-0.49,0.794-0.58,1.261l-7.948,41.772l0.4,0.241
						c0.177,0.105,0.359,0.199,0.548,0.28l7.935-41.712C309.534,223.264,309.742,222.835,310.03,222.467z"/>
					<path style="opacity:0.5;fill:#FFFFFF;" d="M310.03,222.467l-0.941-0.574c-0.285,0.367-0.49,0.794-0.58,1.261l-7.948,41.772
						l0.4,0.241c0.177,0.105,0.359,0.199,0.548,0.28l7.935-41.712C309.534,223.264,309.742,222.835,310.03,222.467z"/>
					<path style="opacity:0.1;" d="M310.03,222.467l-0.941-0.574c-0.285,0.367-0.49,0.794-0.58,1.261l-7.948,41.772l0.4,0.241
						c0.177,0.105,0.359,0.199,0.548,0.28l7.935-41.712C309.534,223.264,309.742,222.835,310.03,222.467z"/>
					<g id="XMLID_2_">
						<path id="XMLID_3_" style="fill:#455A64;" d="M335.669,230.47c0.492-2.581,3.241-5.962,6.142-7.552
							c2.901-1.59,4.854-0.788,4.363,1.793c-0.492,2.58-3.242,5.962-6.142,7.552C337.131,233.854,335.178,233.051,335.669,230.47z"
							/>
					</g>
				</g>
			</g>
			<path style="fill:#FFA8A7;" d="M264.906,239.193c3.356,2.355,6.981,0.963,11.435,1.504c4.454,0.541,8.267,1.63,11.842,1.527
				c3.575-0.103,5.334,0.623,2.833,3.487c-2.501,2.864-9.685,1.214-11.62,2.086s-3.145,3.992-0.904,6.599
				c2.096,2.44-11.958-2.276-13.832-5.168S262.36,239.562,264.906,239.193z"/>
		</g>
	</g>
</g>
<g id="Speech_Bubble">
	<g id="Speach_Bubble_2_">
		<g id="XMLID_1366_">
			<path id="XMLID_1371_" style="fill:#27DEBF;" d="M352.567,114.145l-3.1-8.82l2.494-7.2v-4.408l-7.633,4.408v4.407l3.282,8.675
				c0.056,0.096,0.135,0.159,0.223,0.198l-0.002,0.003L352.567,114.145z"/>
			<path id="XMLID_1370_" style="opacity:0.2;" d="M352.567,114.145l-3.1-8.82l2.494-7.2v-4.408l-7.633,4.408v4.407l3.282,8.675
				c0.056,0.096,0.135,0.159,0.223,0.198l-0.002,0.003L352.567,114.145z"/>
			<path id="XMLID_1369_" style="fill:#27DEBF;" d="M370.797,58.681c0-1.459-1.024-3.234-2.289-3.964l-1.863-1.076
				c-1.264-0.73-3.313-0.73-4.577,0L333.489,70.17c-1.264,0.73-2.289,2.504-2.289,3.964v31.444c0,1.46,1.025,3.234,2.289,3.964
				l1.864,1.076c1.264,0.73,3.313,0.73,4.577,0l9.191-5.31l3.275,8.663c0.209,0.363,0.748,0.311,0.885-0.084l3.461-12.982
				l11.766-6.816c1.264-0.729,2.289-2.504,2.289-3.964L370.797,58.681z"/>
			<path id="XMLID_1368_" style="opacity:0.2;" d="M331.2,105.578c0,1.46,1.025,3.234,2.289,3.964l1.864,1.076
				c1.142,0.66,2.92,0.717,4.186,0.184c-1.077,0.407-1.897-0.2-1.897-1.506l0-31.444c0-0.73,0.256-1.538,0.67-2.256l-6.441-3.718
				c-0.414,0.717-0.67,1.526-0.67,2.256V105.578z"/>
			<path id="XMLID_1367_" style="opacity:0.3;fill:#FFFFFF;" d="M370.722,58.031c-0.267-0.972-1.153-1.281-2.21-0.673
				l-28.583,16.533c-0.63,0.363-1.206,0.982-1.612,1.708l-6.438-3.716c0.416-0.726,0.982-1.345,1.612-1.708l28.573-16.533
				c1.27-0.726,3.32-0.726,4.581,0l1.868,1.078C369.59,55.34,370.498,56.728,370.722,58.031z"/>
		</g>
		<g id="XMLID_1276_">
			<g id="XMLID_1342_">
				<path id="XMLID_1349_" style="fill:#FFFFFF;" d="M365.681,80.98c-0.002-0.003-0.008-0.005-0.013-0.007
					c-0.043-0.023-0.098-0.038-0.159-0.04l-2.187-0.124c-0.222-0.012-0.386-0.172-0.368-0.356c0.03-0.346,0.048-0.689,0.05-1.022
					c0.003-0.371-0.013-0.734-0.048-1.087c-0.015-0.174,0.088-0.462,0.24-0.646l2.442-2.957c0.151-0.184,0.217-0.457,0.149-0.608
					l-1.161-2.566c-0.015-0.035-0.04-0.063-0.071-0.081c-0.005-0.002-0.01-0.005-0.015-0.007c-0.096-0.048-0.24-0.008-0.373,0.116
					l-2.609,2.382c-0.184,0.169-0.434,0.207-0.57,0.096c-0.338-0.277-0.712-0.492-1.115-0.648c-0.179-0.071-0.303-0.267-0.262-0.457
					l0.805-3.651c0.025-0.111-0.02-0.204-0.111-0.257c-0.063-0.035-0.146-0.05-0.242-0.043l-2.551,0.255
					c-0.237,0.023-0.487,0.197-0.558,0.388l-1.383,3.709c-0.071,0.192-0.323,0.426-0.558,0.537c-0.522,0.247-1.05,0.552-1.579,0.916
					c-0.215,0.144-0.454,0.154-0.548,0.013l-1.304-1.993c-0.094-0.141-0.303-0.111-0.472,0.063l-2.8,2.96
					c-0.169,0.177-0.265,0.452-0.217,0.613l0.78,2.642c0.048,0.161-0.018,0.447-0.141,0.636c-0.479,0.724-0.908,1.473-1.289,2.235
					c-0.096,0.192-0.366,0.396-0.608,0.454l-2.397,0.578c-0.242,0.058-0.484,0.26-0.542,0.449l-1.206,4.062
					c-0.058,0.189,0.078,0.353,0.298,0.366l2.19,0.124c0.222,0.013,0.383,0.172,0.368,0.356c-0.066,0.732-0.068,1.441-0.005,2.109
					c0.018,0.177-0.086,0.464-0.237,0.646l-2.442,2.96c-0.152,0.182-0.217,0.454-0.149,0.608l1.161,2.563
					c0.015,0.038,0.04,0.063,0.071,0.081c0,0.003,0,0.003,0,0.003c0.005,0.002,0.008,0.002,0.008,0.002
					c0.03,0.015,0.061,0.023,0.093,0.023h0.003c0.086,0,0.187-0.045,0.285-0.134l2.606-2.384c0.184-0.166,0.434-0.207,0.57-0.096
					c0.341,0.278,0.714,0.492,1.115,0.648c0.182,0.071,0.305,0.27,0.262,0.457l-0.805,3.653c-0.023,0.108,0.02,0.197,0.106,0.25
					c0.003,0.003,0.005,0.003,0.008,0.005c0.061,0.035,0.144,0.053,0.24,0.043l2.551-0.252c0.237-0.025,0.487-0.199,0.558-0.389
					l1.385-3.709c0.071-0.192,0.323-0.426,0.558-0.54c0.267-0.126,0.54-0.27,0.81-0.426c0.255-0.149,0.512-0.313,0.769-0.487
					c0.212-0.146,0.454-0.156,0.545-0.015l1.307,1.996c0.018,0.025,0.038,0.046,0.063,0.058c0.106,0.066,0.27,0.02,0.406-0.124
					l2.803-2.96c0.167-0.174,0.262-0.452,0.214-0.613l-0.78-2.639c-0.048-0.164,0.02-0.449,0.144-0.636
					c0.479-0.724,0.908-1.476,1.287-2.238c0.096-0.192,0.366-0.394,0.611-0.452l2.394-0.578c0.245-0.058,0.487-0.26,0.542-0.452
					l1.209-4.06C365.848,81.167,365.795,81.046,365.681,80.98z M352.892,90.901c-0.048,0.013-0.093,0.025-0.141,0.035
					c-0.035,0.01-0.068,0.015-0.101,0.023c-0.076,0.015-0.152,0.028-0.227,0.038c-0.089,0.013-0.177,0.02-0.263,0.025
					c-0.055,0.003-0.109,0.005-0.163,0.006c-0.026,0-0.051,0-0.077,0c-1.048-0.012-1.919-0.543-2.403-1.616
					c-0.182-0.401-0.298-0.853-0.351-1.337c-0.03-0.24-0.043-0.487-0.04-0.742c0.015-2.314,1.204-5.18,3.164-7.251
					c0.633-0.669,1.287-1.191,1.932-1.567c0.215-0.126,0.432-0.237,0.644-0.328c0.636-0.28,1.249-0.409,1.809-0.383
					c0.008,0,0.013,0,0.02,0.003c0.03,0,0.061,0.002,0.091,0.005c0.033,0.003,0.063,0.005,0.093,0.01
					c0.033,0.003,0.066,0.005,0.098,0.013c0.87,0.126,1.582,0.651,2.006,1.584c1.082,2.394-0.159,6.573-2.773,9.33
					C355.115,89.905,353.952,90.629,352.892,90.901z"/>
			</g>
		</g>
	</g>
</g>
</svg>
